<svg width="177" height="73" viewBox="0 0 177 73" fill="none" xmlns="http://www.w3.org/2000/svg">
<path d="M176.648 2.6145C176.53 2.44881 175.412 1.75368 174.499 1.27879C173.849 0.940701 172.275 0.755322 171.557 0.932387C171.302 0.99525 170.679 1.34369 170.171 1.70687C168.682 2.7729 168.01 3.5293 168.007 4.14392C168.005 4.34826 167.923 4.6563 167.824 4.82855C167.725 5.0008 167.458 5.49305 167.231 5.92245C166.714 6.89849 164.67 10.4545 164.323 10.9796C164.182 11.1946 163.987 11.5509 163.89 11.7716C163.794 11.9923 163.665 12.1727 163.604 12.1727C163.543 12.1727 163.36 12.4189 163.197 12.7196C161.898 15.1164 158.151 19.0278 157.154 19.0278C156.805 19.0278 156.77 18.8086 157 18.0602C157.12 17.6699 157.317 16.4972 157.438 15.4544C157.669 13.456 157.751 13.0017 158.241 11.0059C158.408 10.324 158.605 9.25767 158.679 8.63619C158.752 8.01456 158.915 7.30717 159.041 7.06418C159.297 6.56945 159.203 5.6093 158.899 5.6093C158.8 5.6093 158.601 5.47804 158.455 5.3176C158.31 5.15716 158.087 5.0256 157.959 5.0253C157.831 5.02501 157.52 4.89885 157.267 4.74483C157.014 4.59081 156.489 4.41871 156.1 4.36226C155.711 4.30596 155.309 4.19307 155.206 4.11139C155.104 4.02971 154.24 3.93083 153.287 3.89145C151.688 3.82567 151.52 3.84419 151.117 4.13138C150.81 4.34972 150.462 4.44248 149.947 4.44248C149.346 4.44248 149.197 4.49425 149.123 4.72864C149.016 5.06366 149.236 5.53842 149.554 5.6605C149.677 5.70746 149.777 5.81992 149.777 5.91035C149.777 6.00078 149.915 6.26885 150.084 6.50615C150.274 6.77248 150.361 7.06025 150.312 7.25803C150.268 7.43422 150.129 7.97212 150.004 8.45344C149.878 8.93475 149.769 9.62391 149.76 9.98489C149.752 10.3459 149.622 11.0022 149.473 11.4434C149.151 12.3941 148.859 14.4115 148.81 16.0378C148.79 16.6795 148.743 17.5328 148.705 17.9339C148.667 18.335 148.619 19.2538 148.598 19.9758C148.568 21.0274 148.49 21.4253 148.208 21.9763C147.838 22.6989 147.853 23.3965 148.248 23.7915C148.432 23.9748 148.484 24.7098 148.685 29.9667C148.729 31.1299 148.827 32.4754 148.902 32.9567C148.977 33.438 149.113 34.3897 149.204 35.0716C149.296 35.7535 149.462 36.4886 149.574 36.7052C149.686 36.9219 149.777 37.2575 149.777 37.4512C149.777 37.645 149.899 37.9599 150.049 38.1513C150.198 38.3426 150.365 38.6416 150.42 38.8159C150.603 39.4025 151.572 40.1282 152.321 40.2405C153.613 40.4342 153.514 40.806 154.527 31.8873C154.64 30.898 154.793 29.8479 154.868 29.5537C154.943 29.2595 155.048 28.5264 155.101 27.9248C155.154 27.3232 155.291 26.4167 155.405 25.9103C155.518 25.4039 155.611 24.762 155.611 24.4837C155.611 23.5426 155.828 23.6283 158.164 25.4905C158.994 26.1524 160.084 27.1629 160.777 27.9123C161.105 28.2662 161.593 28.7913 161.863 29.0791C162.133 29.3667 162.556 29.8975 162.802 30.2584C163.048 30.6194 163.617 31.3742 164.066 31.9358C164.516 32.4973 164.987 33.1208 165.115 33.3214C165.242 33.5219 165.506 33.8501 165.703 34.0506C165.899 34.2512 166.509 34.9731 167.059 35.655C167.608 36.3369 168.162 37.0002 168.289 37.129C168.415 37.2578 168.949 37.8157 169.474 38.3687C171.802 40.8192 173.67 41.908 175.648 41.9669C176.993 42.007 177.196 41.8691 176.854 41.1474C176.722 40.87 176.614 40.5845 176.614 40.5134C176.614 40.4422 176.483 40.1266 176.322 39.8118C176.162 39.4971 176.031 39.155 176.031 39.0518C176.031 38.9484 175.97 38.8638 175.896 38.8638C175.822 38.8638 175.683 38.6177 175.586 38.3168C175.489 38.0161 175.333 37.6714 175.238 37.5511C175.144 37.4308 174.987 37.1682 174.889 36.9677C174.792 36.7671 174.553 36.3405 174.357 36.0196C174.162 35.6988 173.955 35.3378 173.897 35.2174C173.839 35.0971 173.639 34.7956 173.453 34.5474C173.266 34.2992 173.114 34.055 173.114 34.005C173.114 33.8922 171.931 32.136 171.72 31.9358C171.636 31.8555 171.375 31.4946 171.14 31.1336C170.905 30.7726 170.345 30.0178 169.895 29.4563C169.444 28.8947 168.713 27.9759 168.269 27.4143C167.826 26.8528 167.307 26.2236 167.116 26.0159C166.925 25.8083 166.375 25.1885 165.894 24.6384C165.413 24.0884 164.741 23.3395 164.401 22.974C163.709 22.2291 163.652 21.9759 164.064 21.4832C164.535 20.9188 167.292 17.3623 168.228 16.111C169.107 14.935 169.229 14.776 170.067 13.7041C170.318 13.3833 170.679 12.891 170.869 12.6102C171.06 12.3295 171.578 11.6075 172.021 11.0059C172.464 10.4042 173.201 9.35408 173.66 8.67222C174.118 7.99035 174.547 7.36683 174.611 7.28661C174.933 6.88698 175.994 5.15089 176.349 4.44248C176.742 3.65867 176.863 2.91656 176.648 2.6145Z" fill="#FEBD59"/>
<path d="M117.69 8.37686C117.69 8.29474 117.509 8.15852 117.288 8.07436C116.569 7.79987 115.73 7.70157 115.227 7.83269L114.734 7.96132L114.81 8.9015C114.851 9.41869 114.975 9.95003 115.084 10.0822C115.382 10.4417 115.333 15.8219 115.019 17.2869C114.891 17.8834 114.752 19.159 114.711 20.1217C114.67 21.0843 114.568 22.1344 114.485 22.4553C114.403 22.7762 114.266 23.9248 114.181 25.0077C114.097 26.0907 113.938 27.3049 113.829 27.706C113.72 28.1071 113.593 29.1468 113.546 30.0163C113.499 30.8859 113.369 31.9689 113.255 32.4229C113.142 32.8769 113.011 33.8935 112.963 34.6822C112.915 35.4706 112.837 36.3595 112.79 36.6573C112.742 36.955 112.773 37.4599 112.859 37.7792C113.064 38.54 113.831 39.5709 114.275 39.6823C114.468 39.7309 114.627 39.829 114.627 39.9005C114.627 40.2062 116.245 39.8165 116.814 39.3735C116.935 39.28 117.247 39.1192 117.507 39.0159C117.768 38.9128 117.981 38.7779 117.981 38.716C117.981 38.6542 118.129 38.5627 118.309 38.5127C118.49 38.4627 118.846 38.2419 119.1 38.0219L119.562 37.6221L119.659 33.9768C119.712 31.9718 119.816 30.1017 119.889 29.8209C119.963 29.5401 120.094 28.3587 120.179 27.1955C120.265 26.0324 120.424 24.7525 120.534 24.3514C120.643 23.9503 120.778 23.2612 120.833 22.82C120.888 22.3787 121.016 21.8537 121.117 21.6531C121.219 21.4526 121.341 21.0064 121.389 20.6615C121.436 20.3167 121.575 19.8918 121.697 19.7175C121.819 19.5431 121.919 19.2598 121.919 19.0879C121.919 18.916 122.037 18.6189 122.18 18.4276C122.324 18.2362 122.514 17.9156 122.602 17.7151C123.061 16.6743 124.355 15.4469 125.297 15.1596C125.485 15.1021 125.737 14.9719 125.857 14.8699C125.978 14.768 126.306 14.638 126.587 14.5812C126.867 14.5243 127.248 14.3822 127.432 14.2655C127.616 14.149 128.075 14.0169 128.453 13.9722C129.461 13.8528 129.805 14.175 129.883 15.3138C129.974 16.6412 130.05 17.1689 130.21 17.5851C130.29 17.7946 130.399 19.1401 130.452 20.5751C130.504 22.0103 130.64 23.9394 130.753 24.8619C130.867 25.7844 130.994 27.0643 131.037 27.706C131.146 29.3499 131.252 30.0942 131.389 30.1788C131.454 30.2191 131.553 30.6597 131.61 31.1582C131.737 32.28 132.274 33.9268 132.979 35.3522C133.619 36.647 135.234 38.3498 135.97 38.5072C136.224 38.5614 136.497 38.6567 136.578 38.7189C136.878 38.952 139.459 39.1921 140.951 39.1257C142.201 39.0702 142.573 39.0007 142.892 38.7634C143.519 38.2971 143.47 37.949 142.678 37.234C141.717 36.3671 140.511 35.1345 139.64 34.1307C138.791 33.1504 138.597 32.5868 138.334 30.3314C138.232 29.449 138.08 28.5604 137.998 28.3567C137.915 28.1531 137.801 27.4639 137.742 26.8252C137.685 26.1867 137.546 25.4428 137.435 25.1723C137.325 24.9017 137.234 24.4402 137.234 24.1466C137.234 23.853 137.132 23.2539 137.007 22.8153C136.883 22.3767 136.7 21.5169 136.602 20.9046C136.503 20.2923 136.351 19.7016 136.263 19.5919C136.176 19.4822 136.057 19.068 135.999 18.6717C135.942 18.2753 135.77 17.633 135.616 17.2443C135.463 16.8556 135.338 16.3805 135.338 16.1886C135.338 15.9968 135.239 15.7414 135.119 15.6211C134.999 15.5008 134.9 15.2827 134.899 15.1366C134.898 14.9906 134.736 14.5428 134.539 14.1417C134.341 13.7406 134.178 13.3332 134.175 13.2365C134.172 13.0857 133.693 12.2745 133.333 11.8081C133.271 11.7278 133.105 11.4818 132.963 11.2611C132.822 11.0404 132.637 10.86 132.553 10.86C132.469 10.86 132.302 10.7617 132.181 10.6415C132.061 10.5212 131.787 10.3845 131.572 10.3377C131.357 10.2907 130.874 10.1267 130.498 9.97278C129.587 9.60028 128.354 9.60553 127.646 9.98489C127.346 10.1453 126.958 10.2766 126.783 10.2766C126.608 10.2766 126.443 10.3258 126.416 10.386C126.39 10.4462 125.876 10.7516 125.274 11.0648C124.672 11.3781 124.147 11.6834 124.107 11.7434C123.99 11.9189 121.724 13.6312 121.61 13.6312C121.552 13.6312 121.463 13.4388 121.411 13.2037C121.359 12.9686 121.223 12.6981 121.108 12.6025C120.993 12.5068 120.898 12.3473 120.898 12.2479C120.898 11.5639 118.446 8.52636 117.894 8.52636C117.781 8.52636 117.69 8.45912 117.69 8.37686Z" fill="#FEBD59"/>
<path d="M23.8633 10.6412C23.9037 9.75882 23.8766 8.80728 23.8029 8.52666C23.6452 7.92603 23.3652 7.8286 22.8754 8.20388C22.0948 8.80217 21.2932 8.98769 19.5487 8.97427C17.8738 8.96129 16.6834 9.06718 13.8423 9.4814C10.8363 9.91969 6.82679 10.7791 5.67455 11.2322C5.23918 11.4033 3.99476 11.6584 1.22604 12.1439L0.642627 12.2462L0.550449 13.121C0.499838 13.6022 0.348586 14.2068 0.214255 14.4645C-0.135792 15.1369 0.0901367 15.497 0.898599 15.5555L1.51774 15.6002L1.56223 16.6941C1.58921 17.3594 1.51993 18.1023 1.38531 18.5902C1.26338 19.0314 1.12088 19.8518 1.06837 20.4134C1.01587 20.9749 0.876135 21.8281 0.757994 22.3095C0.615788 22.8885 0.510192 24.4232 0.445871 26.8462C0.382863 29.2225 0.290685 30.5793 0.183191 30.7113C-0.030921 30.9746 -0.0678228 37.659 0.128349 40.6869C0.377028 44.5284 0.415241 45.1744 0.494731 46.8857C0.537466 47.8082 0.662899 48.9568 0.773163 49.4381C0.883574 49.9194 1.01878 50.7356 1.07377 51.2519C1.12875 51.7684 1.26761 52.3722 1.38225 52.5939C1.49689 52.8156 1.59271 53.1152 1.59519 53.2594C1.60424 53.772 2.46608 55.255 3.07545 55.8063C3.61059 56.2909 3.78751 56.3661 4.38973 56.3661C4.994 56.3661 5.0945 56.3229 5.15342 56.0379C5.3035 55.311 5.66784 51.5149 5.75171 49.8027C5.80086 48.8 5.93183 47.4217 6.04268 46.7398C6.15353 46.058 6.31236 44.5156 6.39535 43.3123C6.47849 42.109 6.60611 40.9184 6.67904 40.6667C6.75211 40.4149 6.85479 39.5617 6.90759 38.7706C6.96025 37.9795 7.09662 36.8072 7.21038 36.1655C7.32429 35.5237 7.48357 34.4139 7.56451 33.6994C7.78563 31.7461 7.72539 31.7909 10.142 31.7847C11.2547 31.7817 13.0476 31.7221 14.1261 31.6519C16.4677 31.4998 16.6329 31.3958 16.8914 29.912C17.1411 28.4782 17.0241 27.2056 16.5965 26.7024C16.5202 26.6126 16.3721 26.4152 16.2676 26.2638C16.094 26.0124 15.8885 25.9908 13.9109 26.0165C12.5779 26.0337 11.3481 26.1327 10.7148 26.2737C8.99562 26.6563 8.89411 26.6643 8.80149 26.4227C8.75467 26.3006 8.81608 25.4892 8.93801 24.6196C9.05994 23.7502 9.19982 22.4808 9.24868 21.799C9.29754 21.1171 9.42822 20.0342 9.53907 19.3924C9.64992 18.7507 9.78323 17.7661 9.8353 17.2046C9.97109 15.7395 10.1579 15.1204 10.5234 14.9248C10.7492 14.8039 11.5806 14.7798 13.3991 14.8414C14.8061 14.8891 16.2853 14.8675 16.6864 14.7935C17.0875 14.7196 18.5903 14.6143 20.0259 14.5594C22.9866 14.4464 22.8245 14.5157 23.4235 13.1067C23.7142 12.4228 23.8048 11.9154 23.8633 10.6412Z" fill="#FEBD59"/>
<path d="M35.7202 10.2789C35.5999 10.2766 35.3219 10.1811 35.1024 10.0666C34.8502 9.93501 34.018 9.82737 32.8417 9.77413C31.1886 9.69931 30.8412 9.72761 29.7403 10.027C28.5412 10.3532 28.5016 10.3778 28.5304 10.7757C28.5469 11.0019 28.6534 11.2941 28.7671 11.4246C28.8811 11.5553 29.0529 11.9074 29.1491 12.2071C29.2453 12.5068 29.3848 12.7896 29.4592 12.8356C29.6704 12.9661 29.6179 15.1757 29.3818 16.0897C29.1933 16.8196 28.8376 22.8179 28.8096 25.737C28.7965 27.1144 29.1334 30.3702 29.3682 31.1336C29.4793 31.4946 29.6138 32.0488 29.6672 32.3653C29.7972 33.136 30.3724 34.2086 30.8294 34.5321C31.5572 35.0472 33.2371 35.3618 35.3843 35.3849C36.5681 35.3976 37.5595 35.3403 37.7903 35.2457C38.0065 35.1574 38.6628 35.0459 39.2489 34.9982C39.835 34.9504 40.5772 34.8206 40.898 34.7099C42.6992 34.088 42.6806 34.0614 42.8756 37.5511C42.978 39.3829 43.1345 40.7933 43.3154 41.5135C43.47 42.1284 43.5963 42.7932 43.5963 42.9905C43.5963 43.188 43.6879 43.4255 43.7998 43.5184C43.9118 43.6113 44.0447 43.8983 44.0951 44.1562C44.2031 44.7077 45.1047 45.9909 45.4625 46.102C45.5993 46.1444 45.8963 46.2791 46.1225 46.401C46.6206 46.6692 47.4699 46.5511 47.6623 46.1866C47.7346 46.0497 47.8327 45.3459 47.8801 44.6226C47.9277 43.8995 48.0629 42.7509 48.1806 42.0702C48.2982 41.3897 48.4338 40.1604 48.4819 39.3387C48.5301 38.5169 48.6571 37.6309 48.7642 37.3697C48.8714 37.1084 48.9662 36.5338 48.9749 36.0926C49.0056 34.5414 49.2452 33.1635 49.5192 32.9631C49.7927 32.7632 51.0383 32.5921 52.22 32.5921C53.2092 32.5921 54.0732 32.2202 54.2067 31.7371C54.2652 31.5255 54.3139 30.3241 54.3147 29.0673C54.3165 26.8486 54.3063 26.7713 53.9629 26.4055C53.6577 26.0802 53.488 26.0289 52.7232 26.0296C52.2225 26.0302 51.6553 26.1253 51.4193 26.2484C50.884 26.5275 50.4514 26.5271 50.4514 26.2475C50.4514 26.1272 50.5086 26.0287 50.5784 26.0287C50.6483 26.0287 50.751 25.6186 50.8068 25.1171C50.8626 24.6158 50.9927 24.0743 51.0958 23.9138C51.1996 23.7524 51.3227 22.9382 51.3714 22.0907C51.4199 21.2484 51.5549 20.1326 51.6717 19.6112C51.7884 19.0898 51.9295 18.0778 51.985 17.3624C52.0406 16.6469 52.1777 15.8018 52.2897 15.4844C52.4017 15.1669 52.4963 14.6038 52.4998 14.2327C52.5033 13.8618 52.6007 13.2958 52.7163 12.9749C53.0261 12.1149 52.9865 11.9373 52.3839 11.4873C52.0832 11.2626 51.8151 11.0296 51.7884 10.9694C51.7616 10.9092 51.5975 10.858 51.4238 10.8553C51.2499 10.8529 50.9842 10.7572 50.8332 10.643C50.6824 10.5286 50.1902 10.3621 49.7393 10.2728C49.2887 10.1834 48.5098 10.011 48.0085 9.88965C47.2734 9.71156 46.949 9.70092 46.3312 9.83437C45.91 9.92539 45.1082 10.0577 44.5494 10.1284C43.0737 10.3154 42.9067 10.7089 43.7823 11.9365C44.0734 12.3448 44.1052 12.5569 44.0916 14.0021C44.0823 14.9868 44.0053 15.7456 43.8934 15.9548C43.7926 16.143 43.6783 16.6652 43.639 17.1154C43.5998 17.5656 43.4429 18.422 43.2903 19.0187C43.1 19.763 43.0129 20.6088 43.0129 21.7122C43.0129 22.5968 42.9397 24.2417 42.8501 25.3674C42.65 27.8847 42.5944 27.9576 40.6792 28.2143C39.9974 28.3058 39.0457 28.4712 38.5644 28.582C37.2641 28.8816 35.8425 29.0942 35.7057 29.0097C35.553 28.9153 35.7077 26.9209 35.8954 26.5628C36.0694 26.2309 36.1365 25.8696 36.2131 24.8536C36.2793 23.9747 36.4314 23.2616 36.6002 23.0387C36.661 22.9585 36.7505 22.3262 36.7994 21.6337C36.8481 20.9411 36.9851 20.0992 37.1038 19.7627C37.2225 19.4262 37.3623 18.6146 37.4142 17.959C37.4661 17.3034 37.5943 16.5557 37.699 16.2974C37.8038 16.0391 37.9356 15.35 37.9921 14.766C38.0485 14.182 38.1839 13.5746 38.2931 13.4164C38.5222 13.0841 38.5622 12.0268 38.3456 12.0268C38.2654 12.0268 38.1997 11.9328 38.1997 11.8178C38.1997 11.7029 38.0771 11.57 37.9273 11.5225C37.7774 11.4749 37.5376 11.3063 37.3942 11.1479C37.2508 10.9897 37.0288 10.8586 36.9009 10.8568C36.773 10.8551 36.5042 10.7252 36.3037 10.5683C36.1031 10.4114 35.8406 10.2813 35.7202 10.2789Z" fill="#FEBD59"/>
<path fill-rule="evenodd" clip-rule="evenodd" d="M70.5158 8.24108C70.8419 8.39801 71.2176 8.52636 71.3509 8.52636C71.4841 8.52636 71.8079 8.65733 72.0706 8.81748C72.3333 8.97763 72.663 9.10889 72.8033 9.10919C72.9437 9.10948 73.1899 9.24104 73.3503 9.40148C73.5107 9.56192 73.7371 9.69319 73.8535 9.69319C73.9697 9.69319 74.3694 9.90642 74.7414 10.1672C75.1135 10.428 75.527 10.7076 75.6603 10.7888C77.6172 11.9806 81.2263 15.2433 81.2263 15.8206C81.2263 15.9 81.293 15.9649 81.3745 15.9649C81.4561 15.9649 81.6323 16.1946 81.7662 16.4753C81.9 16.7561 82.0579 16.9858 82.1169 16.9858C82.1759 16.9858 82.2664 17.1782 82.3181 17.4133C82.3697 17.6484 82.5062 17.919 82.6213 18.0145C82.7365 18.1102 82.8307 18.3113 82.8307 18.4616C82.8307 18.6119 82.9681 19.1319 83.136 19.617C83.3767 20.3123 83.4204 20.6787 83.343 21.3464C83.2065 22.5226 82.7582 24.1811 82.5589 24.2476C82.4677 24.2779 82.393 24.3794 82.393 24.4729C82.3926 24.9262 79.9313 27.3602 78.9219 27.9058L78.5523 28.1055L78.9048 28.3848C79.0986 28.5384 79.4871 28.7936 79.7678 28.9522C80.6845 29.47 80.9126 29.6336 81.8098 30.418C82.9374 31.404 83.5406 32.0608 83.7851 32.5688C83.9262 32.8624 84.1234 33.2667 84.2232 33.4672C84.7566 34.5401 84.8754 37.6342 84.437 39.0331C84.2776 39.5415 84.1463 40.0644 84.1453 40.1951C84.1443 40.3257 84.0412 40.5173 83.9162 40.621C83.7912 40.7247 83.5925 41.0117 83.4747 41.2587C82.9398 42.3801 82.2699 43.2467 80.9567 44.5156C80.3549 45.0971 79.7756 45.573 79.6692 45.573C79.563 45.573 79.4761 45.6293 79.4761 45.698C79.4761 45.8631 77.5705 47.3232 77.355 47.3232C77.2629 47.3232 77.0688 47.4545 76.9237 47.6149C76.7786 47.7754 76.5769 47.9067 76.4756 47.9067C76.3744 47.9067 76.2698 47.9654 76.243 48.037C76.1812 48.203 75.4598 48.6327 74.1152 49.3046C73.5331 49.5955 73.0259 49.8835 72.988 49.9448C72.9502 50.0061 72.6527 50.0987 72.327 50.1509C72.0013 50.203 71.699 50.3388 71.6552 50.4527C71.6059 50.5815 71.2627 50.6936 70.7493 50.7489C70.2947 50.7979 69.8029 50.9041 69.6564 50.9849C69.1591 51.2591 68.0338 51.3098 67.5788 51.0787C67.3438 50.9592 66.8397 50.8163 66.4587 50.7608C66.0778 50.7053 65.7659 50.5969 65.7659 50.5199C65.7659 50.4429 65.5957 50.3024 65.3877 50.2076C65.0548 50.0559 64.9794 50.0755 64.7559 50.3717C64.4104 50.8297 63.3035 50.964 62.7676 50.613C62.1796 50.2276 61.6821 49.765 61.6821 49.6035C61.6821 49.5229 61.5619 49.3214 61.4151 49.1557C61.2683 48.9902 61.0688 48.5758 60.9718 48.2348C60.8746 47.8938 60.7413 47.6149 60.6754 47.6149C60.6093 47.6149 60.5123 47.2483 60.4597 46.8002C60.407 46.3521 60.2667 45.7975 60.1478 45.5677C60.0291 45.3379 59.9305 44.8349 59.9288 44.4499C59.9272 44.0649 59.817 42.9622 59.6842 41.9996C59.3758 39.7665 59.2364 25.4142 59.5147 24.5702C59.6073 24.2894 59.6918 23.2721 59.7024 22.3095C59.729 19.9054 59.9188 17.7562 60.1662 17.0588C60.3758 16.4681 60.6173 14.7317 60.7611 12.7815C60.843 11.6726 60.5552 10.3179 60.1346 9.83145C59.5989 9.21187 59.8451 8.38051 60.5641 8.38051C60.8261 8.38051 61.1223 8.29854 61.2225 8.19819C61.3451 8.07524 62.0617 7.99954 63.4205 7.96585C65.051 7.92545 65.5222 7.9603 65.8855 8.14816C66.4622 8.44643 66.5266 8.44177 66.9469 8.07276C67.2681 7.79083 67.4071 7.77303 68.6101 7.86054C69.442 7.92093 70.1399 8.06036 70.5158 8.24108ZM68.8854 17.9339C68.9528 16.7208 69.2991 14.2253 69.4976 13.5218C69.571 13.2616 69.9004 13.2965 70.3042 13.6073C70.4955 13.7546 70.9644 14.0291 71.3463 14.2173C71.7281 14.4055 72.1485 14.6787 72.2805 14.8246C72.4125 14.9704 72.5818 15.0897 72.6568 15.0897C73.1547 15.0897 76.2674 18.2674 76.2674 18.7757C76.2674 18.8948 76.3718 19.242 76.4993 19.5473C76.71 20.0515 76.7106 20.1905 76.5057 21.0601C76.3817 21.5868 76.2361 22.2691 76.1825 22.5764C76.1287 22.8835 75.9945 23.1696 75.8843 23.2119C75.7741 23.2542 75.6839 23.4408 75.6839 23.6268C75.6839 24.0009 73.7552 26.0287 73.3994 26.0287C73.2871 26.0287 73.1575 26.1272 73.1114 26.2475C73.0652 26.3678 72.9355 26.4663 72.8232 26.4663C72.711 26.4663 72.4765 26.6304 72.302 26.8309C72.1278 27.0315 71.8983 27.1955 71.7926 27.1955C71.6867 27.1955 71.6001 27.294 71.6001 27.4143C71.6001 27.5346 71.5368 27.6331 71.4592 27.6331C71.2671 27.6331 70.5117 28.3851 70.3928 28.6948C70.3399 28.8327 70.232 28.9458 70.1529 28.9458C69.9766 28.9458 69.7059 29.8784 69.7048 30.4902C69.7029 31.4813 71.0298 32.4758 72.621 32.6761C73.0622 32.7317 73.5364 32.8352 73.6747 32.9064C73.8129 32.9776 74.4314 33.1 75.0488 33.1781C75.6663 33.2565 76.322 33.4192 76.506 33.5397C76.69 33.6603 76.9594 33.7589 77.105 33.7589C77.3647 33.7589 77.6455 34.0166 78.2482 34.8086C78.616 35.2918 78.6169 36.6261 78.2498 37.1865C78.122 37.3813 78.0176 37.6315 78.0176 37.7422C78.0176 37.8529 77.8863 38.0623 77.7259 38.2074C77.5654 38.3526 77.4342 38.5187 77.4342 38.5763C77.4342 38.6341 77.2538 38.8912 77.0331 39.1477C76.0632 40.2761 75.1878 41.0529 74.0552 41.79C73.3868 42.2251 72.753 42.6637 72.6471 42.7645C72.5411 42.8652 72.3707 42.9477 72.2686 42.9477C72.1664 42.9477 71.964 43.0789 71.8188 43.2394C71.6737 43.3998 71.4605 43.5311 71.3453 43.5311C71.2299 43.5311 70.984 43.6504 70.7987 43.7961C70.6135 43.9418 70.0931 44.1495 69.6423 44.2577C68.8888 44.4384 68.7788 44.4311 68.2788 44.1686C67.7481 43.8897 67.7339 43.8605 67.6912 42.9631C67.6457 42.01 67.8901 40.4682 68.0868 40.4682C68.1485 40.4682 68.2788 40.1114 68.3764 39.6753C68.474 39.2393 68.6213 38.86 68.7039 38.8326C68.9251 38.7588 68.9401 36.8768 68.7214 36.6569C68.6045 36.5396 68.1242 36.4802 67.3623 36.4888C65.9894 36.5045 65.9207 36.4369 66.2605 35.4052C66.3871 35.0211 66.5282 34.0506 66.5743 33.2484C66.6204 32.4462 66.7542 31.4617 66.8719 31.0606C66.9897 30.6595 67.1231 29.7735 67.1686 29.0916C67.214 28.4098 67.3161 27.7733 67.3953 27.6771C67.5433 27.4976 67.5767 27.3106 67.7294 25.8129C67.7783 25.3331 67.9171 24.7898 68.0379 24.6055C68.1861 24.3793 68.2813 23.7391 68.3309 22.6337C68.3715 21.7333 68.4946 20.6358 68.6044 20.1946C68.7144 19.7534 68.8408 18.7361 68.8854 17.9339Z" fill="#FEBD59"/>
<path fill-rule="evenodd" clip-rule="evenodd" d="M106.432 6.90768C106.752 7.07877 106.896 7.64745 106.896 8.7342C106.896 9.1493 106.966 9.55827 107.05 9.64301C107.135 9.72761 107.27 10.4792 107.349 11.313C107.429 12.1469 107.589 13.1572 107.704 13.5583C107.82 13.9594 107.954 14.7798 108.003 15.3815C108.051 15.9831 108.181 16.6784 108.292 16.9265C108.404 17.1792 108.559 18.3652 108.644 19.6248C108.826 22.3437 109.296 26.6196 109.498 27.3938C109.578 27.7034 109.688 28.5238 109.742 29.2169C109.796 29.9102 109.927 30.8382 110.033 31.2794C110.14 31.7206 110.271 32.6395 110.325 33.3214C110.378 34.0032 110.51 34.8893 110.616 35.2904C110.723 35.6915 110.854 36.4463 110.906 36.9677C110.959 37.4891 111.09 38.3095 111.198 38.7908C111.306 39.2722 111.438 40.0926 111.492 40.614C111.545 41.1354 111.679 41.8902 111.788 42.2913C111.897 42.6924 112.031 43.6186 112.084 44.3494C112.178 45.6303 112.169 45.6868 111.84 45.9174C111.464 46.1809 110.472 46.2331 109.908 46.0189C109.115 45.7173 107.188 43.3092 107.188 42.6196C107.188 42.4989 107.09 42.3186 106.97 42.2193C106.851 42.1199 106.68 41.7673 106.592 41.4357C106.504 41.1041 106.348 40.7343 106.246 40.614C106.144 40.4937 106.017 40.1079 105.963 39.7568C105.91 39.4058 105.77 38.9809 105.652 38.8129C105.534 38.6447 105.436 38.3413 105.435 38.1384C105.433 37.9357 105.312 37.5073 105.167 37.1865C105.022 36.8656 104.856 36.3109 104.799 35.954C104.742 35.597 104.645 35.236 104.582 35.1518C104.407 34.9168 104.125 33.8441 104.125 33.4138C104.125 33.2025 104.065 33.0297 103.992 33.0297C103.919 33.0297 103.813 32.7506 103.757 32.4098C103.583 31.3593 103.494 31.2794 102.506 31.2794C102.022 31.2794 101.516 31.2221 101.381 31.1519C100.797 30.8493 94.6257 30.6805 94.5309 30.9647C94.5 31.0576 94.39 31.1336 94.2866 31.1336C94.1822 31.1336 94.0598 31.3768 94.0111 31.6814C93.963 31.9827 93.7904 32.5046 93.6278 32.8412C93.4652 33.1777 93.3321 33.6134 93.3321 33.8092C93.3321 34.005 93.243 34.1995 93.1341 34.2413C93.025 34.2831 92.895 34.5691 92.8451 34.8767C92.7951 35.1845 92.6218 35.6821 92.4598 35.9826C92.2979 36.2832 92.1653 36.6628 92.1653 36.8265C92.1653 36.99 92.0733 37.2692 91.9608 37.4468C91.8484 37.6245 91.7084 37.9996 91.6497 38.2804C91.5911 38.5611 91.4204 39.0195 91.2708 39.2991C91.121 39.5787 90.9985 39.9911 90.9985 40.2154C90.9985 40.4396 90.9085 40.6578 90.7984 40.6999C90.6883 40.7422 90.5596 41.0519 90.5122 41.3882C90.465 41.7245 90.2924 42.2597 90.1289 42.5773C89.9654 42.8952 89.8317 43.3008 89.8317 43.4786C89.8317 43.6564 89.7433 43.8903 89.6352 43.9984C89.5273 44.1063 89.3906 44.4556 89.3317 44.7745C89.2154 45.4037 88.5384 46.5933 88.2963 46.5937C88.0494 46.5941 87.2542 45.797 86.9878 45.282C86.7771 44.8742 86.7469 44.4521 86.7904 42.511C86.8226 41.0749 86.9043 40.1448 87.0094 40.0164C87.1017 39.9038 87.2256 39.2897 87.2846 38.6516C87.3437 38.0135 87.4751 37.2915 87.5766 37.0472C87.6782 36.8029 87.8088 36.2092 87.867 35.7279C87.9252 35.2466 88.055 34.6887 88.1557 34.4882C88.2563 34.2876 88.3844 33.8282 88.4402 33.4672C88.4962 33.1062 88.6667 32.4672 88.8193 32.0472C89.1074 31.2545 89.0886 31.1126 88.5819 30.2584C88.4544 30.0435 88.3979 29.717 88.4446 29.4633C88.5216 29.0426 89.034 28.3624 89.2736 28.3624C89.665 28.3624 90.2692 27.3447 90.2692 26.6859C90.2692 26.4963 90.3621 26.2484 90.4756 26.1349C90.5892 26.0213 90.73 25.6087 90.7886 25.2178C90.8472 24.827 91.0166 24.3081 91.1651 24.0647C91.3135 23.8212 91.4352 23.4464 91.4355 23.2314C91.4358 23.0166 91.5352 22.7416 91.6564 22.6204C91.7776 22.4992 91.9172 22.1045 91.9668 21.7433C92.0163 21.3821 92.1468 21.0521 92.2569 21.0098C92.367 20.9676 92.4573 20.7833 92.4578 20.6002C92.4582 20.4173 92.6202 20.005 92.8179 19.6841C93.0155 19.3632 93.1813 18.9694 93.1864 18.809C93.1914 18.6486 93.2919 18.3898 93.4097 18.2342C93.5274 18.0784 93.6241 17.7831 93.6244 17.5779C93.6247 17.3725 93.756 16.9898 93.9161 16.7271C94.0763 16.4644 94.2073 16.1618 94.2073 16.0546C94.2073 15.9474 94.3713 15.6179 94.5719 15.3224C94.7724 15.0269 94.9365 14.6606 94.9365 14.5085C94.9365 14.3563 95.0032 14.1907 95.0846 14.1404C95.166 14.0901 95.3289 13.8401 95.4464 13.5848C95.892 12.618 97.0037 10.9455 97.3266 10.756C97.4342 10.6929 97.8998 10.3131 98.3611 9.91197C99.5237 8.9012 100.61 8.0942 101.172 7.82481C101.432 7.69967 101.646 7.54375 101.646 7.47841C101.646 7.41307 101.795 7.35954 101.978 7.35954C102.161 7.35954 102.472 7.24592 102.671 7.10692C103.265 6.69051 105.778 6.55734 106.432 6.90768ZM99.4566 18.9573C99.6165 18.644 99.7898 18.0668 99.8417 17.6747C99.905 17.1972 99.9779 17.0259 100.062 17.156C100.284 17.4968 100.771 19.1889 100.771 19.6161C100.771 19.8427 100.861 20.1185 100.972 20.2292C101.083 20.3399 101.22 20.7219 101.276 21.0782C101.333 21.4345 101.505 22.2292 101.658 22.8443C101.812 23.4592 101.937 24.2314 101.937 24.56C101.937 24.8887 102.018 25.2863 102.116 25.4437C102.409 25.9132 102.094 26.0386 100.465 26.1C99.6302 26.1314 98.6193 26.2227 98.2182 26.3031C97.3438 26.4779 96.1025 26.5096 96.1055 26.3569C96.1101 26.1323 96.483 25.1803 96.6418 24.9882C96.7324 24.8787 96.8535 24.5377 96.9109 24.2303C96.9683 23.9232 97.1005 23.6391 97.2048 23.5991C97.309 23.5591 97.437 23.2727 97.4895 22.9627C97.5419 22.6528 97.678 22.3217 97.792 22.2271C97.9061 22.1324 97.9994 21.9741 97.9994 21.8754C97.9994 21.7765 98.1635 21.5186 98.3641 21.3023C98.5646 21.0859 98.7287 20.7889 98.7287 20.6425C98.7287 20.4961 98.8271 20.2945 98.9475 20.1946C99.0678 20.0947 99.1663 19.9036 99.1663 19.77C99.1663 19.6364 99.2969 19.2706 99.4566 18.9573Z" fill="#FEBD59"/>
<path fill-rule="evenodd" clip-rule="evenodd" d="M165.871 59.5076C166.597 59.7832 167.059 60.417 167.168 61.2814C167.317 62.4789 167.063 63.2124 166.332 63.6962C165.906 63.9781 165.554 64.0913 165.133 64.0821C164.353 64.0649 163.97 63.8462 163.443 63.1177C163.092 62.6342 163.01 62.3725 163.01 61.748C163.01 60.9184 163.452 59.9384 163.826 59.9384C163.939 59.9384 164.031 59.8783 164.031 59.8047C164.031 59.6454 164.703 59.3827 165.152 59.3665C165.327 59.3602 165.651 59.4237 165.871 59.5076ZM160.859 60.063C161.174 60.3777 160.847 60.6677 160.179 60.6677C159.82 60.6677 159.484 60.7362 159.432 60.8199C159.306 61.0244 159.754 61.6886 160.018 61.6886C160.134 61.6886 160.46 61.8924 160.744 62.1414C161.291 62.6217 161.381 63.012 161.092 63.6466C160.694 64.5193 158.342 64.5869 158.342 63.7255C158.342 63.4724 158.445 63.4389 159.218 63.4389C159.938 63.4389 160.093 63.3958 160.093 63.1952C160.093 62.8988 159.68 62.4179 159.425 62.4179C159.094 62.4179 158.379 61.7019 158.301 61.2918C158.191 60.7181 158.553 60.1175 159.11 59.948C159.655 59.7822 160.643 59.8471 160.859 60.063ZM154.691 60.2205C154.774 60.3757 154.842 61.1281 154.842 61.8927C154.842 63.1343 154.873 63.2994 155.134 63.4392C155.295 63.5252 155.574 63.583 155.754 63.5675C156.442 63.5084 156.592 63.5774 156.592 63.9539C156.592 64.3844 156.537 64.4081 155.267 64.5224C154.338 64.606 154.301 64.5965 154.134 64.2301C154.004 63.9444 153.698 61.3312 153.677 60.3348C153.675 60.2306 154.186 59.9698 154.436 59.9476C154.493 59.9426 154.608 60.0653 154.691 60.2205ZM150.979 60.8151C151.339 61.1537 151.684 62.1866 151.665 62.8682C151.658 63.1043 151.499 63.5754 151.312 63.9151C150.912 64.6404 150.183 64.9608 149.179 64.8528C147.833 64.7079 147.068 63.1736 147.593 61.6691C147.694 61.3777 147.865 61.0328 147.973 60.9028C148.467 60.3084 150.38 60.2527 150.979 60.8151ZM164.52 60.5895C164.158 60.8428 164.011 61.4529 164.132 62.1964C164.301 63.2386 165.709 63.4465 166.076 62.4831C166.295 61.9071 166.246 61.3714 165.928 60.85C165.604 60.3182 165.053 60.2163 164.52 60.5895ZM144.96 61.03C145.389 61.4074 145.48 61.9405 145.193 62.3997C145.06 62.6126 145.076 62.7414 145.266 63.0136C145.399 63.2029 145.507 63.598 145.507 63.8916C145.507 64.3281 145.416 64.4947 145.007 64.8073C144.603 65.115 144.321 65.1963 143.556 65.2256C143.033 65.2457 142.543 65.1964 142.466 65.1162C142.389 65.036 142.259 64.1499 142.177 63.1472C141.981 60.7542 142.028 60.6658 143.505 60.6723C144.409 60.6763 144.617 60.7273 144.96 61.03ZM131.255 61.3914C131.455 61.5709 131.194 61.9802 130.833 62.0546C130.641 62.094 130.316 62.1614 130.11 62.2042C129.825 62.2639 129.747 62.3588 129.782 62.6053C129.82 62.8727 129.946 62.942 130.515 63.0073C130.892 63.0508 131.253 63.1384 131.317 63.2022C131.486 63.3721 130.801 63.8764 130.401 63.8764C130.203 63.8764 129.989 64.0042 129.896 64.1775C129.673 64.5949 129.971 64.9221 130.546 64.8916C131.304 64.8515 131.36 64.8815 131.36 65.335C131.36 65.7622 131.342 65.7731 130.594 65.7992C129.442 65.8395 129.134 65.8015 129.012 65.6048C128.952 65.5062 128.861 64.8637 128.811 64.177C128.761 63.4902 128.688 62.6987 128.648 62.4179C128.545 61.6895 128.839 61.3615 129.701 61.2466C130.427 61.1496 131.051 61.2078 131.255 61.3914ZM134.272 61.3873C134.355 61.5425 134.423 62.263 134.423 62.9883C134.423 64.2284 134.444 64.3213 134.781 64.5422C135.024 64.7014 135.283 64.7459 135.583 64.6799C135.94 64.6018 136.028 64.5058 136.035 64.1931C136.039 63.9788 136.055 63.2128 136.071 62.4908L136.1 61.1782H136.537C136.944 61.1782 136.982 61.2244 137.074 61.8345C137.222 62.8245 137.212 64.6057 137.058 64.6057C136.983 64.6057 136.88 64.7374 136.829 64.8984C136.733 65.2012 135.659 65.7743 135.196 65.7702C135.051 65.7689 134.676 65.6211 134.363 65.442C133.659 65.0399 133.47 64.544 133.331 62.7346C133.229 61.4244 133.234 61.3953 133.57 61.2609C134.058 61.0651 134.103 61.0733 134.272 61.3873ZM148.727 61.6354C148.225 62.2728 148.404 63.4463 149.072 63.9107C149.382 64.1257 149.986 64.0141 150.295 63.6848C150.525 63.4402 150.612 63.1641 150.612 62.6834C150.612 61.7974 150.195 61.2511 149.518 61.2511C149.163 61.2511 148.946 61.3567 148.727 61.6354ZM126.233 61.7029C127.076 61.9968 126.744 62.4179 125.668 62.4179C125.359 62.4179 125.063 62.4865 125.011 62.5702C124.87 62.799 125.347 63.4389 125.66 63.4389C126.03 63.4389 126.838 64.3865 126.838 64.8214C126.838 65.0147 126.684 65.352 126.496 65.5712C126.208 65.9055 126.009 65.9799 125.255 66.0345C124.286 66.1046 123.921 65.9454 123.921 65.4519C123.921 65.2103 124.015 65.1707 124.541 65.1916C125.56 65.232 125.671 65.2047 125.671 64.9152C125.671 64.6064 125.441 64.383 124.768 64.0395C124.514 63.9097 124.18 63.6302 124.024 63.4183C123.782 63.0874 123.766 62.9624 123.908 62.5293C124.112 61.9124 124.482 61.7026 125.613 61.5626C125.701 61.5517 125.98 61.6148 126.233 61.7029ZM143.227 61.7616C143.074 62.16 143.293 62.4404 143.719 62.3912C144.428 62.3094 144.295 61.5513 143.57 61.545C143.427 61.5438 143.273 61.6412 143.227 61.7616ZM97.058 62.0902C97.0836 62.271 96.9677 62.5931 96.8001 62.8059C96.4781 63.2156 96.515 63.7043 96.8846 63.9202C96.9944 63.9844 97.0842 64.1684 97.0842 64.3293C97.0842 64.49 97.208 64.8971 97.3596 65.2336C98.3647 67.4672 98.3865 67.6077 97.7406 67.6728C97.1343 67.734 96.9487 67.6571 96.7631 67.2675C96.5481 66.8167 95.7726 66.6335 95.4933 66.9676C95.4056 67.0724 95.2191 67.3 95.0788 67.4736C94.742 67.89 94.2882 68.008 93.9567 67.7656C93.7077 67.5836 93.7023 67.498 93.8804 66.5617C93.9859 66.0073 94.1589 65.4505 94.2647 65.3243C94.3706 65.1982 94.5001 64.7831 94.5524 64.4018C94.6046 64.0207 94.7382 63.618 94.849 63.507C95.0208 63.3353 94.9959 63.2694 94.6819 63.0636C94.2366 62.7719 94.2127 62.4347 94.6074 62.0111C94.8638 61.7359 95.0381 61.6994 95.9565 61.7283C96.928 61.7589 97.0149 61.7875 97.058 62.0902ZM117.932 62.1217C118.73 62.5288 119.108 63.2065 119.108 64.2314C119.108 65.7407 118.366 66.5018 116.893 66.5018C116.215 66.5018 115.997 66.4395 115.744 66.1736C115.095 65.4929 114.981 65.1946 114.981 64.1798C114.981 63.0092 115.179 62.6462 116.081 62.1637C116.837 61.7597 117.206 61.7514 117.932 62.1217ZM112.46 62.3085C112.616 62.546 112.683 63.145 112.704 64.4755C112.72 65.4868 112.687 66.3893 112.63 66.4809C112.457 66.7624 111.641 66.6716 111.278 66.3306C111.092 66.1561 110.94 65.9566 110.94 65.887C110.94 65.7355 110.344 64.8672 110.139 64.7212C109.886 64.5402 109.755 64.8356 109.698 65.7132C109.659 66.3222 109.568 66.6224 109.38 66.7604C109.151 66.9288 109.075 66.9048 108.789 66.5738C108.485 66.222 108.461 66.0537 108.461 64.3109C108.461 62.5595 108.482 62.4169 108.761 62.2675C109.501 61.8717 110.393 62.531 110.882 63.8343C111.477 65.4203 111.872 64.7839 111.452 62.9158C111.274 62.123 112.039 61.6624 112.46 62.3085ZM103.016 63.0844C103.239 63.2907 103.537 63.7665 103.68 64.1419C103.953 64.8615 104.027 65.7725 103.812 65.7725C103.742 65.7725 103.643 66.0371 103.591 66.3605C103.525 66.7726 103.4 66.9926 103.171 67.096C102.992 67.1772 102.681 67.3382 102.481 67.4539C101.928 67.7727 100.979 67.7214 100.382 67.3404C100.099 67.16 99.8651 66.9404 99.8616 66.8526C99.8582 66.7648 99.7242 66.574 99.5637 66.4289C99.3257 66.2134 99.272 65.9796 99.272 65.1569C99.272 63.3622 99.8961 62.7373 101.707 62.7188C102.483 62.7109 102.669 62.7627 103.016 63.0844ZM116.189 63.3295C116.03 63.5901 115.9 63.9205 115.9 64.0634C115.899 64.5336 116.306 65.3078 116.684 65.5559C117.037 65.7871 117.078 65.7839 117.49 65.4906C118.034 65.1028 118.138 64.7784 118.012 63.8587C117.93 63.264 117.845 63.1033 117.552 62.992C116.872 62.7335 116.496 62.8267 116.189 63.3295ZM91.5964 63.1402C91.7972 63.2166 92.0396 63.4247 92.1348 63.6027C92.3743 64.0503 91.9886 64.314 91.094 64.314C90.471 64.314 90.3942 64.3531 90.228 64.7543C90.0197 65.2571 90.1095 66.2549 90.394 66.5975C90.5404 66.774 90.7606 66.8095 91.3382 66.7499C91.8004 66.7022 92.1544 66.7352 92.2542 66.8349C92.5383 67.119 92.4306 67.5082 92.0074 67.7271C91.6592 67.9071 91.6064 68.0118 91.6549 68.4266C91.7411 69.1655 91.2664 69.5125 90.2656 69.4419C89.866 69.4137 89.8126 68.8859 90.1822 68.6156C90.4046 68.453 90.388 68.4005 89.9999 68.0418C88.6269 66.7723 88.5413 66.5864 88.6638 65.1365C88.7105 64.5837 88.8397 64.1991 89.0792 63.8995C89.6624 63.1704 90.785 62.8317 91.5964 63.1402ZM143.33 63.5646C143.227 63.7582 143.242 63.9144 143.384 64.1082C143.547 64.3308 143.656 64.3544 143.986 64.2377C144.484 64.062 144.572 63.8369 144.264 63.5287C143.949 63.2135 143.509 63.2305 143.33 63.5646ZM85.77 63.6679C85.896 63.7937 86.0373 64.0727 86.0843 64.2877C86.1817 64.7343 86.2368 64.8822 86.4196 65.1891C86.7026 65.6642 87.3121 67.4026 87.3121 67.7345C87.3121 68.4532 86.0833 68.3827 85.9234 67.6549C85.8363 67.2582 85.7851 67.2311 85.1243 67.2311C84.4579 67.2311 84.4128 67.2557 84.3218 67.6698C84.2096 68.1807 83.7827 68.4588 83.2976 68.3371C82.8483 68.2243 82.7882 67.7547 83.1233 66.9729C83.2702 66.6303 83.4508 65.9788 83.5246 65.5252C83.5984 65.0714 83.7209 64.6618 83.7966 64.615C83.8723 64.5682 83.9814 64.3335 84.039 64.0938C84.0966 63.8538 84.1713 63.6084 84.205 63.5483C84.3217 63.3404 85.5353 63.4332 85.77 63.6679ZM81.4672 63.7208C81.646 63.834 81.6473 64.0023 81.4765 64.9219C81.3673 65.51 81.1603 66.2538 81.0165 66.5747C80.8727 66.8956 80.7537 67.3667 80.7519 67.6215C80.7486 68.0974 80.2074 68.6896 79.7759 68.6896C79.4296 68.6896 78.8526 68.2326 78.8526 67.9584C78.8526 67.8153 78.6893 67.4128 78.4897 67.0636C78.2902 66.7144 78.1261 66.2944 78.1251 66.1299C78.1241 65.9653 78.0466 65.7542 77.953 65.6605C77.6416 65.3491 77.3998 64.4301 77.5535 64.1428C77.6976 63.8737 78.3507 63.7802 78.6338 63.988C78.8825 64.1708 79.1443 64.7317 79.1443 65.0818C79.1443 65.3558 79.3649 65.8123 79.6873 66.2058C79.8154 66.3622 80.0151 65.8071 80.0172 65.2889C80.0218 64.1344 80.7967 63.2965 81.4672 63.7208ZM74.4958 64.003C74.9338 64.1083 75.6438 64.608 75.6438 64.8112C75.6438 64.886 75.7563 65.0716 75.8937 65.2234C76.2274 65.5921 76.2073 67.5076 75.8671 67.7563C75.7443 67.8461 75.6438 67.9879 75.6438 68.0713C75.6438 68.1549 75.3978 68.3702 75.0969 68.5497C74.693 68.7908 74.3268 68.8748 73.6974 68.871C72.9413 68.8664 72.791 68.8135 72.3687 68.4043C72.1069 68.1504 71.8177 67.693 71.7262 67.3877C71.0714 65.2017 72.4538 63.5124 74.4958 64.003ZM101.168 64.0223C101.168 64.1025 101.078 64.1681 100.968 64.1681C100.719 64.1681 100.562 64.8923 100.681 65.4861C100.829 66.2271 101.634 66.5986 102.094 66.1385C102.367 65.865 102.344 64.4574 102.06 64.1155C101.845 63.8559 101.168 63.7853 101.168 64.0223ZM69.5367 64.5551C69.7555 64.8186 69.9124 67.8776 69.7512 68.7368C69.6718 69.1608 69.6039 69.2174 69.1381 69.2488C68.743 69.2753 68.5239 69.1938 68.2469 68.9167C67.8849 68.5548 67.4355 67.8454 67.2448 67.3345C67.0425 66.7929 66.819 67.2028 66.7856 68.1765C66.7668 68.7236 66.7175 69.205 66.6762 69.2464C66.5146 69.4079 65.693 69.3105 65.5694 69.115C65.4974 69.0014 65.4245 68.1536 65.4073 67.2311C65.3541 64.3856 65.3478 64.403 66.3822 64.5547C67.0149 64.6476 67.0463 64.6764 67.6949 65.7632C68.326 66.8205 68.4141 66.7486 68.3537 65.225C68.3328 64.6999 68.3812 64.5835 68.6683 64.4684C69.1619 64.2705 69.313 64.2857 69.5367 64.5551ZM42.8895 64.689C43.1831 64.9827 43.1777 65.0838 42.8474 65.4918C42.5875 65.8128 42.5866 65.8565 42.8262 66.5369C42.9638 66.9274 43.1515 67.3222 43.2434 67.4141C43.3352 67.506 43.4109 67.6829 43.4117 67.8072C43.4124 67.9316 43.5744 68.3614 43.7718 68.7625C44.1869 69.6066 44.2432 70.2635 43.9111 70.3908C43.6033 70.5089 43.0466 70.1941 42.8224 69.7752C42.5892 69.3394 42.4384 69.2873 41.7392 69.4009C41.2529 69.48 41.1501 69.5618 41.0496 69.9498C40.9313 70.406 40.6443 70.5759 40.1651 70.4731C39.8599 70.4077 39.8387 70.0176 40.1058 69.3777C40.2136 69.1196 40.3496 68.6527 40.4081 68.3401C40.4666 68.0276 40.6008 67.6338 40.7062 67.465C40.8118 67.2963 40.9418 66.909 40.9953 66.6045C41.064 66.2129 41.1969 66.0033 41.4492 65.8882C41.6454 65.7988 41.806 65.6378 41.806 65.5303C41.806 65.261 41.1552 65.2835 40.9252 65.5606C40.7904 65.7231 40.7086 65.739 40.6335 65.6175C40.3403 65.143 41.0496 64.4941 41.6865 64.654C41.8739 64.701 42.1251 64.6775 42.2447 64.6019C42.5428 64.4133 42.6248 64.4244 42.8895 64.689ZM63.3734 64.8624C63.5957 65.2776 63.8532 68.8109 63.6842 69.1266C63.319 69.8089 62.3787 69.5726 62.36 68.7939C62.3539 68.536 62.3305 68.2265 62.3081 68.1062C62.145 67.2312 62.0912 65.148 62.2252 64.8975C62.4256 64.5233 63.1795 64.5001 63.3734 64.8624ZM57.4147 65.2651C57.7464 65.6646 57.3799 66.1834 56.728 66.2374C56.3398 66.2694 56.1605 66.3591 56.1265 66.5383C56.087 66.7464 56.1844 66.7935 56.6544 66.7935C57.3637 66.7935 57.6192 67.0512 57.4227 67.5681C57.3168 67.8466 57.1593 67.9524 56.7997 67.987C56.4309 68.0224 56.3183 68.1015 56.3183 68.325C56.3183 68.5627 56.4398 68.6302 56.9747 68.6896C57.615 68.7608 57.6304 68.7746 57.6074 69.2565C57.5943 69.5282 57.4958 69.8061 57.3886 69.874C57.2813 69.9422 56.6919 69.9988 56.0788 70.0001C54.8093 70.0025 54.8659 70.0661 54.7166 68.4677C54.6718 67.988 54.5941 67.2675 54.5437 66.8664C54.4936 66.4653 54.4344 65.9842 54.4123 65.797C54.3587 65.3408 54.8925 65.1271 56.2078 65.0784C56.9828 65.0497 57.2734 65.0946 57.4147 65.2651ZM49.2739 65.9955C49.8272 66.5175 49.9737 66.914 49.9737 67.8874C49.9737 69.2103 49.5901 69.8418 48.5674 70.2027C47.9233 70.4299 46.9108 70.4828 46.9108 70.2892C46.9108 70.2224 46.7699 70.123 46.5978 70.0685C46.0089 69.8815 45.6377 69.2683 45.5455 68.3299C45.443 67.2866 45.6143 66.4255 45.9952 66.0706C46.1467 65.9296 46.6196 65.684 47.0459 65.5249C47.9578 65.1847 48.5469 65.3092 49.2739 65.9955ZM73.3023 65.4887C72.98 65.811 72.927 66.5791 73.1878 67.1513C73.3257 67.4541 73.4591 67.5228 73.9083 67.5228C74.2117 67.5228 74.5047 67.4501 74.5596 67.3613C74.673 67.1778 74.6968 65.6521 74.588 65.5431C74.5488 65.5039 74.3073 65.4118 74.0514 65.3383C73.6705 65.2291 73.5347 65.2563 73.3023 65.4887ZM84.9204 65.4219C84.8214 65.6796 84.9236 65.9184 85.1329 65.9184C85.3076 65.9184 85.3133 65.3789 85.1396 65.2715C85.0677 65.227 84.9691 65.2948 84.9204 65.4219ZM95.6257 65.4079C95.6257 65.5416 95.6963 65.6274 95.7825 65.5987C95.8687 65.5699 95.9393 65.4842 95.9393 65.4079C95.9393 65.3316 95.8687 65.2459 95.7825 65.2171C95.6963 65.1884 95.6257 65.2741 95.6257 65.4079ZM37.808 66.2209C37.9212 66.3148 38.0138 66.5149 38.0138 66.6654C38.0138 66.8972 37.9006 66.9393 37.278 66.9393C36.6817 66.9393 36.4707 67.0107 36.1664 67.3149C35.3559 68.1256 36.1017 70.02 37.1387 69.7844C37.8859 69.6144 37.94 69.6306 37.987 70.0387C38.0123 70.2594 37.9795 70.4419 37.914 70.4445C37.8485 70.447 37.6759 70.5394 37.5302 70.6498C37.3015 70.8233 37.2915 70.8934 37.4572 71.1648C37.6293 71.4466 37.6059 71.5168 37.232 71.8415C36.7227 72.2837 36.4856 72.2294 36.4724 71.6673C36.4602 71.1452 36.2834 70.5857 36.1305 70.5857C35.8432 70.5857 35.2333 69.8684 35.0299 69.2911C34.7429 68.4766 34.746 67.9679 35.0423 67.2274C35.4536 66.1993 37.0723 65.6103 37.808 66.2209ZM32.6563 67.685C32.718 68.2776 32.7508 69.2147 32.7293 69.7673C32.6956 70.6341 32.6483 70.7874 32.3855 70.8842C31.7624 71.1138 31.6793 70.8748 31.619 68.6795C31.5585 66.4785 31.6189 66.2661 32.2396 66.4951C32.4952 66.5893 32.5624 66.7814 32.6563 67.685ZM28.2931 66.9302C29.1583 67.3011 29.433 67.7436 29.45 68.7946C29.4681 69.9041 29.357 70.1874 28.71 70.6811C28.2564 71.027 27.9995 71.1026 27.1246 71.1468C26.2242 71.1924 26.0609 71.1624 25.9375 70.9292C25.8589 70.7804 25.7837 69.8802 25.7705 68.9286C25.7502 67.4787 25.7867 67.154 25.9955 66.9232C26.3292 66.5544 27.4244 66.5578 28.2931 66.9302ZM47.1318 66.79C47.0834 66.8683 47.0049 67.2601 46.9575 67.6606C46.8467 68.5964 47.149 69.1271 47.7929 69.1271C48.1287 69.1271 48.2639 69.0399 48.373 68.753C48.5712 68.2316 48.5508 67.0333 48.3402 66.8227C48.1302 66.6126 47.2559 66.5891 47.1318 66.79ZM22.4045 67.0836C22.5527 67.1628 22.79 67.5403 22.9319 67.9223C23.0738 68.3041 23.2764 68.7462 23.3821 68.9044C23.4879 69.0625 23.5744 69.3049 23.5744 69.4429C23.5744 69.581 23.7107 69.9251 23.8774 70.2076C24.4606 71.1959 23.7977 71.7267 23.0408 70.8774C22.7436 70.5437 22.5268 70.4404 22.1282 70.442C21.4897 70.4448 21.3438 70.5356 21.079 71.0962C20.9308 71.4096 20.7693 71.5337 20.5096 71.5337C20.0549 71.5337 19.9604 71.0823 20.2838 70.4569C20.4091 70.2148 20.5114 69.8452 20.5114 69.6354C20.5114 69.4257 20.6373 68.9466 20.791 68.5707C20.9449 68.1949 21.109 67.7116 21.1558 67.4969C21.264 67 21.8723 66.7987 22.4045 67.0836ZM17.2118 67.4329C18.084 67.7974 18.3823 68.7977 17.7939 69.386C17.4951 69.6849 17.5519 70.0873 17.9544 70.5215C18.8626 71.5015 18.3244 72.1546 17.3391 71.2678C17.1586 71.1053 17.011 70.893 17.011 70.7958C17.011 70.6987 16.8386 70.5063 16.628 70.3684C16.1557 70.0589 15.9518 70.2773 16.0765 70.9596C16.1771 71.5107 15.8175 71.8986 15.4308 71.6561C15.2469 71.5407 15.1449 71.0999 15.011 69.8414C14.8101 67.9502 14.8535 67.5562 15.2803 67.3982C15.8182 67.1993 16.69 67.2149 17.2118 67.4329ZM41.6702 67.5039C41.418 67.975 41.5251 68.4708 41.8789 68.4708C42.2438 68.4708 42.3465 67.8651 42.0501 67.4599C41.849 67.1847 41.8405 67.1857 41.6702 67.5039ZM12.98 67.6981C13.1734 68.007 13.0719 68.1129 12.4605 68.2401L11.9791 68.3403V69.9931C11.9791 71.4302 11.9446 71.667 11.7152 71.8085C11.3135 72.0563 11.0332 71.5664 11.0202 70.5943C11.0142 70.1483 10.9651 69.4881 10.9108 69.1271C10.8224 68.5383 10.7597 68.4539 10.3017 68.3058C9.95928 68.1951 9.79126 68.051 9.79126 67.8683C9.79126 67.6362 9.94338 67.5827 10.8122 67.5088C12.3432 67.3785 12.8052 67.4188 12.98 67.6981ZM27.0407 67.6755C26.8225 67.8057 26.7999 67.9802 26.8765 68.9508C26.9866 70.349 27.1284 70.5377 27.7738 70.1453C28.3913 69.7696 28.6064 69.219 28.3992 68.5437C28.3131 68.263 28.1925 67.9564 28.1312 67.8624C27.9673 67.611 27.3315 67.5019 27.0407 67.6755ZM16.0469 68.3143C15.9042 68.6859 16.0564 69.1958 16.3252 69.247C16.6841 69.3156 17.011 69.0141 17.011 68.6145C17.011 68.1336 16.2116 67.8849 16.0469 68.3143ZM21.8177 68.5723C21.6011 69.0478 21.7318 69.4578 22.0789 69.3917C22.4094 69.3287 22.4774 68.8408 22.2071 68.4712C22.0005 68.1886 21.9916 68.1909 21.8177 68.5723Z" fill="#402F16"/>
</svg>
